<mxfile host="app.diagrams.net" agent="Mozilla/5.0 (X11; Ubuntu; Linux x86_64; rv:132.0) Gecko/20100101 Firefox/132.0" version="25.0.3">
  <diagram name="Page-1" id="099fd60b-425b-db50-ffb0-6b813814b670">
    <mxGraphModel dx="1434" dy="795" grid="1" gridSize="10" guides="1" tooltips="1" connect="1" arrows="1" fold="1" page="1" pageScale="1" pageWidth="850" pageHeight="1100" background="none" math="0" shadow="0">
      <root>
        <mxCell id="0" />
        <mxCell id="1" parent="0" />
        <mxCell id="505jJCxTDHuLh0HeMeBI-2" value="" style="rounded=0;whiteSpace=wrap;html=1;" parent="1" vertex="1">
          <mxGeometry x="360" y="200" width="80" height="20" as="geometry" />
        </mxCell>
        <mxCell id="505jJCxTDHuLh0HeMeBI-3" value="" style="rounded=0;whiteSpace=wrap;html=1;" parent="1" vertex="1">
          <mxGeometry x="360" y="220" width="80" height="20" as="geometry" />
        </mxCell>
        <mxCell id="505jJCxTDHuLh0HeMeBI-4" value="" style="rounded=0;whiteSpace=wrap;html=1;" parent="1" vertex="1">
          <mxGeometry x="360" y="240" width="80" height="20" as="geometry" />
        </mxCell>
        <mxCell id="505jJCxTDHuLh0HeMeBI-5" value="sample(&lt;b&gt;t=0&lt;/b&gt;)" style="rounded=0;whiteSpace=wrap;html=1;" parent="1" vertex="1">
          <mxGeometry x="360" y="260" width="80" height="20" as="geometry" />
        </mxCell>
        <mxCell id="505jJCxTDHuLh0HeMeBI-6" value="weight(&lt;b&gt;0&lt;/b&gt;)" style="rounded=0;whiteSpace=wrap;html=1;" parent="1" vertex="1">
          <mxGeometry x="520" y="200" width="80" height="20" as="geometry" />
        </mxCell>
        <mxCell id="505jJCxTDHuLh0HeMeBI-7" value="weight(&lt;b&gt;1&lt;/b&gt;)" style="rounded=0;whiteSpace=wrap;html=1;" parent="1" vertex="1">
          <mxGeometry x="520" y="220" width="80" height="20" as="geometry" />
        </mxCell>
        <mxCell id="505jJCxTDHuLh0HeMeBI-8" value="weight(&lt;b&gt;2&lt;/b&gt;)" style="rounded=0;whiteSpace=wrap;html=1;" parent="1" vertex="1">
          <mxGeometry x="520" y="240" width="80" height="20" as="geometry" />
        </mxCell>
        <mxCell id="505jJCxTDHuLh0HeMeBI-9" value="weight(&lt;b&gt;3&lt;/b&gt;)" style="rounded=0;whiteSpace=wrap;html=1;" parent="1" vertex="1">
          <mxGeometry x="520" y="260" width="80" height="20" as="geometry" />
        </mxCell>
        <mxCell id="505jJCxTDHuLh0HeMeBI-12" value="" style="endArrow=classic;startArrow=classic;html=1;rounded=0;exitX=1;exitY=0.5;exitDx=0;exitDy=0;entryX=0;entryY=0.5;entryDx=0;entryDy=0;" parent="1" source="505jJCxTDHuLh0HeMeBI-5" target="505jJCxTDHuLh0HeMeBI-6" edge="1">
          <mxGeometry width="50" height="50" relative="1" as="geometry">
            <mxPoint x="490" y="280" as="sourcePoint" />
            <mxPoint x="540" y="230" as="targetPoint" />
          </mxGeometry>
        </mxCell>
        <mxCell id="505jJCxTDHuLh0HeMeBI-13" value="" style="endArrow=classic;startArrow=classic;html=1;rounded=0;exitX=1;exitY=0.5;exitDx=0;exitDy=0;entryX=0;entryY=0.5;entryDx=0;entryDy=0;" parent="1" source="505jJCxTDHuLh0HeMeBI-4" target="505jJCxTDHuLh0HeMeBI-9" edge="1">
          <mxGeometry width="50" height="50" relative="1" as="geometry">
            <mxPoint x="500" y="430" as="sourcePoint" />
            <mxPoint x="620" y="310" as="targetPoint" />
          </mxGeometry>
        </mxCell>
        <mxCell id="505jJCxTDHuLh0HeMeBI-14" value="" style="endArrow=classic;startArrow=classic;html=1;rounded=0;exitX=1;exitY=0.5;exitDx=0;exitDy=0;entryX=0;entryY=0.5;entryDx=0;entryDy=0;" parent="1" source="505jJCxTDHuLh0HeMeBI-3" target="505jJCxTDHuLh0HeMeBI-8" edge="1">
          <mxGeometry width="50" height="50" relative="1" as="geometry">
            <mxPoint x="465" y="230" as="sourcePoint" />
            <mxPoint x="585" y="270" as="targetPoint" />
          </mxGeometry>
        </mxCell>
        <mxCell id="505jJCxTDHuLh0HeMeBI-15" value="" style="endArrow=classic;startArrow=classic;html=1;rounded=0;exitX=1;exitY=0.5;exitDx=0;exitDy=0;entryX=0;entryY=0.5;entryDx=0;entryDy=0;" parent="1" source="505jJCxTDHuLh0HeMeBI-2" target="505jJCxTDHuLh0HeMeBI-7" edge="1">
          <mxGeometry width="50" height="50" relative="1" as="geometry">
            <mxPoint x="460" y="200" as="sourcePoint" />
            <mxPoint x="580" y="240" as="targetPoint" />
          </mxGeometry>
        </mxCell>
        <mxCell id="505jJCxTDHuLh0HeMeBI-16" value="" style="rounded=0;whiteSpace=wrap;html=1;" parent="1" vertex="1">
          <mxGeometry x="360" y="320" width="80" height="20" as="geometry" />
        </mxCell>
        <mxCell id="505jJCxTDHuLh0HeMeBI-17" value="" style="rounded=0;whiteSpace=wrap;html=1;" parent="1" vertex="1">
          <mxGeometry x="360" y="340" width="80" height="20" as="geometry" />
        </mxCell>
        <mxCell id="505jJCxTDHuLh0HeMeBI-18" value="sample(&lt;b&gt;t=1&lt;/b&gt;)" style="rounded=0;whiteSpace=wrap;html=1;" parent="1" vertex="1">
          <mxGeometry x="360" y="360" width="80" height="20" as="geometry" />
        </mxCell>
        <mxCell id="505jJCxTDHuLh0HeMeBI-19" value="sample(&lt;b&gt;t=0&lt;/b&gt;)" style="rounded=0;whiteSpace=wrap;html=1;" parent="1" vertex="1">
          <mxGeometry x="360" y="380" width="80" height="20" as="geometry" />
        </mxCell>
        <mxCell id="505jJCxTDHuLh0HeMeBI-20" value="weight(&lt;b&gt;0&lt;/b&gt;)" style="rounded=0;whiteSpace=wrap;html=1;" parent="1" vertex="1">
          <mxGeometry x="520" y="320" width="80" height="20" as="geometry" />
        </mxCell>
        <mxCell id="505jJCxTDHuLh0HeMeBI-21" value="weight(&lt;b&gt;1&lt;/b&gt;)" style="rounded=0;whiteSpace=wrap;html=1;" parent="1" vertex="1">
          <mxGeometry x="520" y="340" width="80" height="20" as="geometry" />
        </mxCell>
        <mxCell id="505jJCxTDHuLh0HeMeBI-22" value="weight(&lt;b&gt;2&lt;/b&gt;)" style="rounded=0;whiteSpace=wrap;html=1;" parent="1" vertex="1">
          <mxGeometry x="520" y="360" width="80" height="20" as="geometry" />
        </mxCell>
        <mxCell id="505jJCxTDHuLh0HeMeBI-23" value="weight(&lt;b&gt;3&lt;/b&gt;)" style="rounded=0;whiteSpace=wrap;html=1;" parent="1" vertex="1">
          <mxGeometry x="520" y="380" width="80" height="20" as="geometry" />
        </mxCell>
        <mxCell id="505jJCxTDHuLh0HeMeBI-24" value="" style="endArrow=classic;html=1;rounded=0;entryX=0;entryY=0.5;entryDx=0;entryDy=0;" parent="1" edge="1">
          <mxGeometry width="50" height="50" relative="1" as="geometry">
            <mxPoint x="270" y="369.83" as="sourcePoint" />
            <mxPoint x="360" y="369.83" as="targetPoint" />
          </mxGeometry>
        </mxCell>
        <mxCell id="505jJCxTDHuLh0HeMeBI-25" value="&lt;div&gt;write_addr=&lt;b&gt;4&#39;b10&lt;/b&gt;&lt;/div&gt;" style="edgeLabel;html=1;align=center;verticalAlign=middle;resizable=0;points=[];" parent="505jJCxTDHuLh0HeMeBI-24" vertex="1" connectable="0">
          <mxGeometry x="-0.3464" y="1" relative="1" as="geometry">
            <mxPoint x="4" y="-9" as="offset" />
          </mxGeometry>
        </mxCell>
        <mxCell id="505jJCxTDHuLh0HeMeBI-26" value="" style="endArrow=classic;startArrow=classic;html=1;rounded=0;exitX=1;exitY=0.5;exitDx=0;exitDy=0;entryX=0;entryY=0.5;entryDx=0;entryDy=0;" parent="1" source="505jJCxTDHuLh0HeMeBI-18" target="505jJCxTDHuLh0HeMeBI-20" edge="1">
          <mxGeometry width="50" height="50" relative="1" as="geometry">
            <mxPoint x="490" y="420" as="sourcePoint" />
            <mxPoint x="540" y="370" as="targetPoint" />
          </mxGeometry>
        </mxCell>
        <mxCell id="505jJCxTDHuLh0HeMeBI-27" value="" style="endArrow=classic;startArrow=classic;html=1;rounded=0;exitX=1;exitY=0.5;exitDx=0;exitDy=0;entryX=0;entryY=0.5;entryDx=0;entryDy=0;" parent="1" source="505jJCxTDHuLh0HeMeBI-17" target="505jJCxTDHuLh0HeMeBI-23" edge="1">
          <mxGeometry width="50" height="50" relative="1" as="geometry">
            <mxPoint x="500" y="570" as="sourcePoint" />
            <mxPoint x="620" y="450" as="targetPoint" />
          </mxGeometry>
        </mxCell>
        <mxCell id="505jJCxTDHuLh0HeMeBI-28" value="" style="endArrow=classic;startArrow=classic;html=1;rounded=0;exitX=1;exitY=0.5;exitDx=0;exitDy=0;entryX=0;entryY=0.5;entryDx=0;entryDy=0;" parent="1" source="505jJCxTDHuLh0HeMeBI-16" target="505jJCxTDHuLh0HeMeBI-22" edge="1">
          <mxGeometry width="50" height="50" relative="1" as="geometry">
            <mxPoint x="465" y="370" as="sourcePoint" />
            <mxPoint x="585" y="410" as="targetPoint" />
          </mxGeometry>
        </mxCell>
        <mxCell id="505jJCxTDHuLh0HeMeBI-29" value="" style="endArrow=classic;startArrow=classic;html=1;rounded=0;exitX=1;exitY=0.5;exitDx=0;exitDy=0;entryX=0;entryY=0.5;entryDx=0;entryDy=0;" parent="1" source="505jJCxTDHuLh0HeMeBI-19" target="505jJCxTDHuLh0HeMeBI-21" edge="1">
          <mxGeometry width="50" height="50" relative="1" as="geometry">
            <mxPoint x="460" y="340" as="sourcePoint" />
            <mxPoint x="580" y="380" as="targetPoint" />
          </mxGeometry>
        </mxCell>
        <mxCell id="505jJCxTDHuLh0HeMeBI-44" value="" style="endArrow=classic;html=1;rounded=0;entryX=0;entryY=0.5;entryDx=0;entryDy=0;" parent="1" edge="1">
          <mxGeometry width="50" height="50" relative="1" as="geometry">
            <mxPoint x="270" y="269.71" as="sourcePoint" />
            <mxPoint x="360" y="269.71" as="targetPoint" />
          </mxGeometry>
        </mxCell>
        <mxCell id="505jJCxTDHuLh0HeMeBI-45" value="&lt;div&gt;write_addr=&lt;b&gt;4&#39;b11&lt;/b&gt;&lt;/div&gt;" style="edgeLabel;html=1;align=center;verticalAlign=middle;resizable=0;points=[];" parent="505jJCxTDHuLh0HeMeBI-44" vertex="1" connectable="0">
          <mxGeometry x="-0.3464" y="1" relative="1" as="geometry">
            <mxPoint x="4" y="-9" as="offset" />
          </mxGeometry>
        </mxCell>
        <mxCell id="505jJCxTDHuLh0HeMeBI-92" value="" style="rounded=0;whiteSpace=wrap;html=1;" parent="1" vertex="1">
          <mxGeometry x="720" y="200" width="80" height="20" as="geometry" />
        </mxCell>
        <mxCell id="505jJCxTDHuLh0HeMeBI-93" value="" style="rounded=0;whiteSpace=wrap;html=1;" parent="1" vertex="1">
          <mxGeometry x="720" y="220" width="80" height="20" as="geometry" />
        </mxCell>
        <mxCell id="505jJCxTDHuLh0HeMeBI-94" value="" style="rounded=0;whiteSpace=wrap;html=1;" parent="1" vertex="1">
          <mxGeometry x="720" y="240" width="80" height="20" as="geometry" />
        </mxCell>
        <mxCell id="505jJCxTDHuLh0HeMeBI-95" value="" style="rounded=0;whiteSpace=wrap;html=1;" parent="1" vertex="1">
          <mxGeometry x="720" y="260" width="80" height="20" as="geometry" />
        </mxCell>
        <mxCell id="505jJCxTDHuLh0HeMeBI-96" value="weight(&lt;b&gt;4&lt;/b&gt;)" style="rounded=0;whiteSpace=wrap;html=1;" parent="1" vertex="1">
          <mxGeometry x="870" y="200" width="80" height="20" as="geometry" />
        </mxCell>
        <mxCell id="505jJCxTDHuLh0HeMeBI-97" value="weight(&lt;b&gt;5&lt;/b&gt;)" style="rounded=0;whiteSpace=wrap;html=1;" parent="1" vertex="1">
          <mxGeometry x="870" y="220" width="80" height="20" as="geometry" />
        </mxCell>
        <mxCell id="505jJCxTDHuLh0HeMeBI-98" value="weight(&lt;b&gt;6&lt;/b&gt;)" style="rounded=0;whiteSpace=wrap;html=1;" parent="1" vertex="1">
          <mxGeometry x="870" y="240" width="80" height="20" as="geometry" />
        </mxCell>
        <mxCell id="505jJCxTDHuLh0HeMeBI-99" value="weight(&lt;b&gt;7&lt;/b&gt;)" style="rounded=0;whiteSpace=wrap;html=1;" parent="1" vertex="1">
          <mxGeometry x="870" y="260" width="80" height="20" as="geometry" />
        </mxCell>
        <mxCell id="505jJCxTDHuLh0HeMeBI-100" value="" style="endArrow=classic;startArrow=classic;html=1;rounded=0;exitX=1;exitY=0.5;exitDx=0;exitDy=0;entryX=0;entryY=0.5;entryDx=0;entryDy=0;" parent="1" source="505jJCxTDHuLh0HeMeBI-95" target="505jJCxTDHuLh0HeMeBI-96" edge="1">
          <mxGeometry width="50" height="50" relative="1" as="geometry">
            <mxPoint x="840" y="280" as="sourcePoint" />
            <mxPoint x="890" y="230" as="targetPoint" />
          </mxGeometry>
        </mxCell>
        <mxCell id="505jJCxTDHuLh0HeMeBI-101" value="" style="endArrow=classic;startArrow=classic;html=1;rounded=0;exitX=1;exitY=0.5;exitDx=0;exitDy=0;entryX=0;entryY=0.5;entryDx=0;entryDy=0;" parent="1" source="505jJCxTDHuLh0HeMeBI-94" target="505jJCxTDHuLh0HeMeBI-99" edge="1">
          <mxGeometry width="50" height="50" relative="1" as="geometry">
            <mxPoint x="850" y="430" as="sourcePoint" />
            <mxPoint x="970" y="310" as="targetPoint" />
          </mxGeometry>
        </mxCell>
        <mxCell id="505jJCxTDHuLh0HeMeBI-102" value="" style="endArrow=classic;startArrow=classic;html=1;rounded=0;exitX=1;exitY=0.5;exitDx=0;exitDy=0;entryX=0;entryY=0.5;entryDx=0;entryDy=0;" parent="1" source="505jJCxTDHuLh0HeMeBI-93" target="505jJCxTDHuLh0HeMeBI-98" edge="1">
          <mxGeometry width="50" height="50" relative="1" as="geometry">
            <mxPoint x="815" y="230" as="sourcePoint" />
            <mxPoint x="935" y="270" as="targetPoint" />
          </mxGeometry>
        </mxCell>
        <mxCell id="505jJCxTDHuLh0HeMeBI-103" value="" style="endArrow=classic;startArrow=classic;html=1;rounded=0;exitX=1;exitY=0.5;exitDx=0;exitDy=0;entryX=0;entryY=0.5;entryDx=0;entryDy=0;" parent="1" source="505jJCxTDHuLh0HeMeBI-92" target="505jJCxTDHuLh0HeMeBI-97" edge="1">
          <mxGeometry width="50" height="50" relative="1" as="geometry">
            <mxPoint x="810" y="200" as="sourcePoint" />
            <mxPoint x="930" y="240" as="targetPoint" />
          </mxGeometry>
        </mxCell>
        <mxCell id="505jJCxTDHuLh0HeMeBI-104" value="" style="endArrow=classic;html=1;rounded=0;entryX=0;entryY=0.5;entryDx=0;entryDy=0;" parent="1" edge="1">
          <mxGeometry width="50" height="50" relative="1" as="geometry">
            <mxPoint x="630" y="269.71" as="sourcePoint" />
            <mxPoint x="720" y="269.71" as="targetPoint" />
          </mxGeometry>
        </mxCell>
        <mxCell id="505jJCxTDHuLh0HeMeBI-105" value="&lt;div&gt;write_addr=&lt;b&gt;4&#39;b11&lt;/b&gt;&lt;/div&gt;" style="edgeLabel;html=1;align=center;verticalAlign=middle;resizable=0;points=[];" parent="505jJCxTDHuLh0HeMeBI-104" vertex="1" connectable="0">
          <mxGeometry x="-0.3464" y="1" relative="1" as="geometry">
            <mxPoint x="4" y="-9" as="offset" />
          </mxGeometry>
        </mxCell>
        <mxCell id="505jJCxTDHuLh0HeMeBI-106" value="" style="rounded=0;whiteSpace=wrap;html=1;" parent="1" vertex="1">
          <mxGeometry x="720" y="320" width="80" height="20" as="geometry" />
        </mxCell>
        <mxCell id="505jJCxTDHuLh0HeMeBI-107" value="" style="rounded=0;whiteSpace=wrap;html=1;" parent="1" vertex="1">
          <mxGeometry x="720" y="340" width="80" height="20" as="geometry" />
        </mxCell>
        <mxCell id="505jJCxTDHuLh0HeMeBI-108" value="" style="rounded=0;whiteSpace=wrap;html=1;" parent="1" vertex="1">
          <mxGeometry x="720" y="360" width="80" height="20" as="geometry" />
        </mxCell>
        <mxCell id="505jJCxTDHuLh0HeMeBI-109" value="" style="rounded=0;whiteSpace=wrap;html=1;" parent="1" vertex="1">
          <mxGeometry x="720" y="380" width="80" height="20" as="geometry" />
        </mxCell>
        <mxCell id="505jJCxTDHuLh0HeMeBI-110" value="weight(&lt;b&gt;4&lt;/b&gt;)" style="rounded=0;whiteSpace=wrap;html=1;" parent="1" vertex="1">
          <mxGeometry x="870" y="320" width="80" height="20" as="geometry" />
        </mxCell>
        <mxCell id="505jJCxTDHuLh0HeMeBI-111" value="weight(&lt;b&gt;5&lt;/b&gt;)" style="rounded=0;whiteSpace=wrap;html=1;" parent="1" vertex="1">
          <mxGeometry x="870" y="340" width="80" height="20" as="geometry" />
        </mxCell>
        <mxCell id="505jJCxTDHuLh0HeMeBI-112" value="weight(&lt;b&gt;6&lt;/b&gt;)" style="rounded=0;whiteSpace=wrap;html=1;" parent="1" vertex="1">
          <mxGeometry x="870" y="360" width="80" height="20" as="geometry" />
        </mxCell>
        <mxCell id="505jJCxTDHuLh0HeMeBI-113" value="weight(&lt;b&gt;7&lt;/b&gt;)" style="rounded=0;whiteSpace=wrap;html=1;" parent="1" vertex="1">
          <mxGeometry x="870" y="380" width="80" height="20" as="geometry" />
        </mxCell>
        <mxCell id="505jJCxTDHuLh0HeMeBI-114" value="" style="endArrow=classic;html=1;rounded=0;entryX=0;entryY=0.5;entryDx=0;entryDy=0;" parent="1" edge="1">
          <mxGeometry width="50" height="50" relative="1" as="geometry">
            <mxPoint x="630" y="369.83" as="sourcePoint" />
            <mxPoint x="720" y="369.83" as="targetPoint" />
          </mxGeometry>
        </mxCell>
        <mxCell id="505jJCxTDHuLh0HeMeBI-115" value="&lt;div&gt;write_addr=&lt;b&gt;4&#39;b10&lt;/b&gt;&lt;/div&gt;" style="edgeLabel;html=1;align=center;verticalAlign=middle;resizable=0;points=[];" parent="505jJCxTDHuLh0HeMeBI-114" vertex="1" connectable="0">
          <mxGeometry x="-0.3464" y="1" relative="1" as="geometry">
            <mxPoint x="4" y="-9" as="offset" />
          </mxGeometry>
        </mxCell>
        <mxCell id="505jJCxTDHuLh0HeMeBI-116" value="" style="endArrow=classic;startArrow=classic;html=1;rounded=0;exitX=1;exitY=0.5;exitDx=0;exitDy=0;entryX=0;entryY=0.5;entryDx=0;entryDy=0;" parent="1" source="505jJCxTDHuLh0HeMeBI-108" target="505jJCxTDHuLh0HeMeBI-110" edge="1">
          <mxGeometry width="50" height="50" relative="1" as="geometry">
            <mxPoint x="840" y="420" as="sourcePoint" />
            <mxPoint x="890" y="370" as="targetPoint" />
          </mxGeometry>
        </mxCell>
        <mxCell id="505jJCxTDHuLh0HeMeBI-117" value="" style="endArrow=classic;startArrow=classic;html=1;rounded=0;exitX=1;exitY=0.5;exitDx=0;exitDy=0;entryX=0;entryY=0.5;entryDx=0;entryDy=0;" parent="1" source="505jJCxTDHuLh0HeMeBI-107" target="505jJCxTDHuLh0HeMeBI-113" edge="1">
          <mxGeometry width="50" height="50" relative="1" as="geometry">
            <mxPoint x="850" y="570" as="sourcePoint" />
            <mxPoint x="970" y="450" as="targetPoint" />
          </mxGeometry>
        </mxCell>
        <mxCell id="505jJCxTDHuLh0HeMeBI-118" value="" style="endArrow=classic;startArrow=classic;html=1;rounded=0;exitX=1;exitY=0.5;exitDx=0;exitDy=0;entryX=0;entryY=0.5;entryDx=0;entryDy=0;" parent="1" source="505jJCxTDHuLh0HeMeBI-106" target="505jJCxTDHuLh0HeMeBI-112" edge="1">
          <mxGeometry width="50" height="50" relative="1" as="geometry">
            <mxPoint x="815" y="370" as="sourcePoint" />
            <mxPoint x="935" y="410" as="targetPoint" />
          </mxGeometry>
        </mxCell>
        <mxCell id="505jJCxTDHuLh0HeMeBI-119" value="" style="endArrow=classic;startArrow=classic;html=1;rounded=0;exitX=1;exitY=0.5;exitDx=0;exitDy=0;entryX=0;entryY=0.5;entryDx=0;entryDy=0;" parent="1" source="505jJCxTDHuLh0HeMeBI-109" target="505jJCxTDHuLh0HeMeBI-111" edge="1">
          <mxGeometry width="50" height="50" relative="1" as="geometry">
            <mxPoint x="810" y="340" as="sourcePoint" />
            <mxPoint x="930" y="380" as="targetPoint" />
          </mxGeometry>
        </mxCell>
        <mxCell id="505jJCxTDHuLh0HeMeBI-120" value="" style="rounded=0;whiteSpace=wrap;html=1;" parent="1" vertex="1">
          <mxGeometry x="360" y="440" width="80" height="20" as="geometry" />
        </mxCell>
        <mxCell id="505jJCxTDHuLh0HeMeBI-121" value="sample(&lt;b&gt;t=2&lt;/b&gt;)" style="rounded=0;whiteSpace=wrap;html=1;" parent="1" vertex="1">
          <mxGeometry x="360" y="460" width="80" height="20" as="geometry" />
        </mxCell>
        <mxCell id="505jJCxTDHuLh0HeMeBI-122" value="sample(&lt;b&gt;t=1&lt;/b&gt;)" style="rounded=0;whiteSpace=wrap;html=1;" parent="1" vertex="1">
          <mxGeometry x="360" y="480" width="80" height="20" as="geometry" />
        </mxCell>
        <mxCell id="505jJCxTDHuLh0HeMeBI-123" value="sample(&lt;b&gt;t=0&lt;/b&gt;)" style="rounded=0;whiteSpace=wrap;html=1;" parent="1" vertex="1">
          <mxGeometry x="360" y="500" width="80" height="20" as="geometry" />
        </mxCell>
        <mxCell id="505jJCxTDHuLh0HeMeBI-124" value="weight(&lt;b&gt;0&lt;/b&gt;)" style="rounded=0;whiteSpace=wrap;html=1;" parent="1" vertex="1">
          <mxGeometry x="520" y="440" width="80" height="20" as="geometry" />
        </mxCell>
        <mxCell id="505jJCxTDHuLh0HeMeBI-125" value="weight(&lt;b&gt;1&lt;/b&gt;)" style="rounded=0;whiteSpace=wrap;html=1;" parent="1" vertex="1">
          <mxGeometry x="520" y="460" width="80" height="20" as="geometry" />
        </mxCell>
        <mxCell id="505jJCxTDHuLh0HeMeBI-126" value="weight(&lt;b&gt;2&lt;/b&gt;)" style="rounded=0;whiteSpace=wrap;html=1;" parent="1" vertex="1">
          <mxGeometry x="520" y="480" width="80" height="20" as="geometry" />
        </mxCell>
        <mxCell id="505jJCxTDHuLh0HeMeBI-127" value="weight(&lt;b&gt;3&lt;/b&gt;)" style="rounded=0;whiteSpace=wrap;html=1;" parent="1" vertex="1">
          <mxGeometry x="520" y="500" width="80" height="20" as="geometry" />
        </mxCell>
        <mxCell id="505jJCxTDHuLh0HeMeBI-128" value="" style="endArrow=classic;html=1;rounded=0;entryX=0;entryY=0.5;entryDx=0;entryDy=0;" parent="1" edge="1">
          <mxGeometry width="50" height="50" relative="1" as="geometry">
            <mxPoint x="270" y="469.65999999999997" as="sourcePoint" />
            <mxPoint x="360" y="469.65999999999997" as="targetPoint" />
          </mxGeometry>
        </mxCell>
        <mxCell id="505jJCxTDHuLh0HeMeBI-129" value="&lt;div&gt;write_addr=&lt;b&gt;4&#39;b01&lt;/b&gt;&lt;/div&gt;" style="edgeLabel;html=1;align=center;verticalAlign=middle;resizable=0;points=[];" parent="505jJCxTDHuLh0HeMeBI-128" vertex="1" connectable="0">
          <mxGeometry x="-0.3464" y="1" relative="1" as="geometry">
            <mxPoint x="4" y="-9" as="offset" />
          </mxGeometry>
        </mxCell>
        <mxCell id="505jJCxTDHuLh0HeMeBI-130" value="" style="endArrow=classic;startArrow=classic;html=1;rounded=0;entryX=0;entryY=0.5;entryDx=0;entryDy=0;exitX=1;exitY=0.5;exitDx=0;exitDy=0;" parent="1" source="505jJCxTDHuLh0HeMeBI-121" target="505jJCxTDHuLh0HeMeBI-124" edge="1">
          <mxGeometry width="50" height="50" relative="1" as="geometry">
            <mxPoint x="480" y="440" as="sourcePoint" />
            <mxPoint x="540" y="490" as="targetPoint" />
          </mxGeometry>
        </mxCell>
        <mxCell id="505jJCxTDHuLh0HeMeBI-131" value="" style="endArrow=classic;startArrow=classic;html=1;rounded=0;entryX=0;entryY=0.5;entryDx=0;entryDy=0;exitX=1;exitY=0.5;exitDx=0;exitDy=0;" parent="1" source="505jJCxTDHuLh0HeMeBI-120" target="505jJCxTDHuLh0HeMeBI-127" edge="1">
          <mxGeometry width="50" height="50" relative="1" as="geometry">
            <mxPoint x="480" y="440" as="sourcePoint" />
            <mxPoint x="620" y="570" as="targetPoint" />
          </mxGeometry>
        </mxCell>
        <mxCell id="505jJCxTDHuLh0HeMeBI-132" value="" style="endArrow=classic;startArrow=classic;html=1;rounded=0;exitX=1;exitY=0.5;exitDx=0;exitDy=0;entryX=0;entryY=0.5;entryDx=0;entryDy=0;" parent="1" source="505jJCxTDHuLh0HeMeBI-123" target="505jJCxTDHuLh0HeMeBI-126" edge="1">
          <mxGeometry width="50" height="50" relative="1" as="geometry">
            <mxPoint x="465" y="490" as="sourcePoint" />
            <mxPoint x="585" y="530" as="targetPoint" />
          </mxGeometry>
        </mxCell>
        <mxCell id="505jJCxTDHuLh0HeMeBI-133" value="" style="endArrow=classic;startArrow=classic;html=1;rounded=0;exitX=1;exitY=0.5;exitDx=0;exitDy=0;entryX=0;entryY=0.5;entryDx=0;entryDy=0;" parent="1" source="505jJCxTDHuLh0HeMeBI-122" target="505jJCxTDHuLh0HeMeBI-125" edge="1">
          <mxGeometry width="50" height="50" relative="1" as="geometry">
            <mxPoint x="460" y="460" as="sourcePoint" />
            <mxPoint x="580" y="500" as="targetPoint" />
          </mxGeometry>
        </mxCell>
        <mxCell id="505jJCxTDHuLh0HeMeBI-134" value="" style="rounded=0;whiteSpace=wrap;html=1;" parent="1" vertex="1">
          <mxGeometry x="720" y="440" width="80" height="20" as="geometry" />
        </mxCell>
        <mxCell id="505jJCxTDHuLh0HeMeBI-135" value="" style="rounded=0;whiteSpace=wrap;html=1;" parent="1" vertex="1">
          <mxGeometry x="720" y="460" width="80" height="20" as="geometry" />
        </mxCell>
        <mxCell id="505jJCxTDHuLh0HeMeBI-136" value="" style="rounded=0;whiteSpace=wrap;html=1;" parent="1" vertex="1">
          <mxGeometry x="720" y="480" width="80" height="20" as="geometry" />
        </mxCell>
        <mxCell id="505jJCxTDHuLh0HeMeBI-137" value="" style="rounded=0;whiteSpace=wrap;html=1;" parent="1" vertex="1">
          <mxGeometry x="720" y="500" width="80" height="20" as="geometry" />
        </mxCell>
        <mxCell id="505jJCxTDHuLh0HeMeBI-138" value="weight(&lt;b&gt;4&lt;/b&gt;)" style="rounded=0;whiteSpace=wrap;html=1;" parent="1" vertex="1">
          <mxGeometry x="870" y="440" width="80" height="20" as="geometry" />
        </mxCell>
        <mxCell id="505jJCxTDHuLh0HeMeBI-139" value="weight(&lt;b&gt;5&lt;/b&gt;)" style="rounded=0;whiteSpace=wrap;html=1;" parent="1" vertex="1">
          <mxGeometry x="870" y="460" width="80" height="20" as="geometry" />
        </mxCell>
        <mxCell id="505jJCxTDHuLh0HeMeBI-140" value="weight(&lt;b&gt;6&lt;/b&gt;)" style="rounded=0;whiteSpace=wrap;html=1;" parent="1" vertex="1">
          <mxGeometry x="870" y="480" width="80" height="20" as="geometry" />
        </mxCell>
        <mxCell id="505jJCxTDHuLh0HeMeBI-141" value="weight(&lt;b&gt;7&lt;/b&gt;)" style="rounded=0;whiteSpace=wrap;html=1;" parent="1" vertex="1">
          <mxGeometry x="870" y="500" width="80" height="20" as="geometry" />
        </mxCell>
        <mxCell id="505jJCxTDHuLh0HeMeBI-144" value="" style="endArrow=classic;startArrow=classic;html=1;rounded=0;exitX=1;exitY=0.5;exitDx=0;exitDy=0;entryX=0;entryY=0.5;entryDx=0;entryDy=0;" parent="1" source="505jJCxTDHuLh0HeMeBI-135" target="505jJCxTDHuLh0HeMeBI-138" edge="1">
          <mxGeometry width="50" height="50" relative="1" as="geometry">
            <mxPoint x="840" y="540" as="sourcePoint" />
            <mxPoint x="890" y="490" as="targetPoint" />
          </mxGeometry>
        </mxCell>
        <mxCell id="505jJCxTDHuLh0HeMeBI-145" value="" style="endArrow=classic;startArrow=classic;html=1;rounded=0;exitX=1;exitY=0.5;exitDx=0;exitDy=0;entryX=0;entryY=0.5;entryDx=0;entryDy=0;" parent="1" source="505jJCxTDHuLh0HeMeBI-134" target="505jJCxTDHuLh0HeMeBI-141" edge="1">
          <mxGeometry width="50" height="50" relative="1" as="geometry">
            <mxPoint x="850" y="690" as="sourcePoint" />
            <mxPoint x="970" y="570" as="targetPoint" />
          </mxGeometry>
        </mxCell>
        <mxCell id="505jJCxTDHuLh0HeMeBI-146" value="" style="endArrow=classic;startArrow=classic;html=1;rounded=0;exitX=1;exitY=0.5;exitDx=0;exitDy=0;entryX=0;entryY=0.5;entryDx=0;entryDy=0;" parent="1" source="505jJCxTDHuLh0HeMeBI-137" target="505jJCxTDHuLh0HeMeBI-140" edge="1">
          <mxGeometry width="50" height="50" relative="1" as="geometry">
            <mxPoint x="815" y="490" as="sourcePoint" />
            <mxPoint x="935" y="530" as="targetPoint" />
          </mxGeometry>
        </mxCell>
        <mxCell id="505jJCxTDHuLh0HeMeBI-147" value="" style="endArrow=classic;startArrow=classic;html=1;rounded=0;exitX=1;exitY=0.5;exitDx=0;exitDy=0;entryX=0;entryY=0.5;entryDx=0;entryDy=0;" parent="1" source="505jJCxTDHuLh0HeMeBI-136" target="505jJCxTDHuLh0HeMeBI-139" edge="1">
          <mxGeometry width="50" height="50" relative="1" as="geometry">
            <mxPoint x="810" y="460" as="sourcePoint" />
            <mxPoint x="930" y="500" as="targetPoint" />
          </mxGeometry>
        </mxCell>
        <mxCell id="505jJCxTDHuLh0HeMeBI-148" value="" style="endArrow=classic;html=1;rounded=0;entryX=0;entryY=0.5;entryDx=0;entryDy=0;" parent="1" edge="1">
          <mxGeometry width="50" height="50" relative="1" as="geometry">
            <mxPoint x="630" y="469.65999999999997" as="sourcePoint" />
            <mxPoint x="720" y="469.65999999999997" as="targetPoint" />
          </mxGeometry>
        </mxCell>
        <mxCell id="505jJCxTDHuLh0HeMeBI-149" value="&lt;div&gt;write_addr=&lt;b&gt;4&#39;b01&lt;/b&gt;&lt;/div&gt;" style="edgeLabel;html=1;align=center;verticalAlign=middle;resizable=0;points=[];" parent="505jJCxTDHuLh0HeMeBI-148" vertex="1" connectable="0">
          <mxGeometry x="-0.3464" y="1" relative="1" as="geometry">
            <mxPoint x="4" y="-9" as="offset" />
          </mxGeometry>
        </mxCell>
        <mxCell id="505jJCxTDHuLh0HeMeBI-150" value="sample(&lt;b&gt;t=3&lt;/b&gt;)" style="rounded=0;whiteSpace=wrap;html=1;" parent="1" vertex="1">
          <mxGeometry x="360" y="560" width="80" height="20" as="geometry" />
        </mxCell>
        <mxCell id="505jJCxTDHuLh0HeMeBI-151" value="sample(&lt;b&gt;t=2&lt;/b&gt;)" style="rounded=0;whiteSpace=wrap;html=1;" parent="1" vertex="1">
          <mxGeometry x="360" y="580" width="80" height="20" as="geometry" />
        </mxCell>
        <mxCell id="505jJCxTDHuLh0HeMeBI-152" value="sample(&lt;b&gt;t=1&lt;/b&gt;)" style="rounded=0;whiteSpace=wrap;html=1;" parent="1" vertex="1">
          <mxGeometry x="360" y="600" width="80" height="20" as="geometry" />
        </mxCell>
        <mxCell id="505jJCxTDHuLh0HeMeBI-153" value="sample(&lt;b&gt;t=0&lt;/b&gt;)" style="rounded=0;whiteSpace=wrap;html=1;" parent="1" vertex="1">
          <mxGeometry x="360" y="620" width="80" height="20" as="geometry" />
        </mxCell>
        <mxCell id="505jJCxTDHuLh0HeMeBI-154" value="weight(&lt;b&gt;0&lt;/b&gt;)" style="rounded=0;whiteSpace=wrap;html=1;" parent="1" vertex="1">
          <mxGeometry x="520" y="560" width="80" height="20" as="geometry" />
        </mxCell>
        <mxCell id="505jJCxTDHuLh0HeMeBI-155" value="weight(&lt;b&gt;1&lt;/b&gt;)" style="rounded=0;whiteSpace=wrap;html=1;" parent="1" vertex="1">
          <mxGeometry x="520" y="580" width="80" height="20" as="geometry" />
        </mxCell>
        <mxCell id="505jJCxTDHuLh0HeMeBI-156" value="weight(&lt;b&gt;2&lt;/b&gt;)" style="rounded=0;whiteSpace=wrap;html=1;" parent="1" vertex="1">
          <mxGeometry x="520" y="600" width="80" height="20" as="geometry" />
        </mxCell>
        <mxCell id="505jJCxTDHuLh0HeMeBI-157" value="weight(&lt;b&gt;3&lt;/b&gt;)" style="rounded=0;whiteSpace=wrap;html=1;" parent="1" vertex="1">
          <mxGeometry x="520" y="620" width="80" height="20" as="geometry" />
        </mxCell>
        <mxCell id="505jJCxTDHuLh0HeMeBI-158" value="" style="endArrow=classic;html=1;rounded=0;entryX=0;entryY=0.5;entryDx=0;entryDy=0;" parent="1" edge="1">
          <mxGeometry width="50" height="50" relative="1" as="geometry">
            <mxPoint x="270" y="570" as="sourcePoint" />
            <mxPoint x="360" y="570" as="targetPoint" />
          </mxGeometry>
        </mxCell>
        <mxCell id="505jJCxTDHuLh0HeMeBI-159" value="&lt;div&gt;write_addr=&lt;b&gt;4&#39;b00&lt;/b&gt;&lt;/div&gt;" style="edgeLabel;html=1;align=center;verticalAlign=middle;resizable=0;points=[];" parent="505jJCxTDHuLh0HeMeBI-158" vertex="1" connectable="0">
          <mxGeometry x="-0.3464" y="1" relative="1" as="geometry">
            <mxPoint x="4" y="-9" as="offset" />
          </mxGeometry>
        </mxCell>
        <mxCell id="505jJCxTDHuLh0HeMeBI-160" value="" style="endArrow=classic;startArrow=classic;html=1;rounded=0;entryX=0;entryY=0.5;entryDx=0;entryDy=0;exitX=1;exitY=0.5;exitDx=0;exitDy=0;" parent="1" source="505jJCxTDHuLh0HeMeBI-150" target="505jJCxTDHuLh0HeMeBI-154" edge="1">
          <mxGeometry width="50" height="50" relative="1" as="geometry">
            <mxPoint x="480" y="560" as="sourcePoint" />
            <mxPoint x="540" y="610" as="targetPoint" />
          </mxGeometry>
        </mxCell>
        <mxCell id="505jJCxTDHuLh0HeMeBI-161" value="" style="endArrow=classic;startArrow=classic;html=1;rounded=0;entryX=0;entryY=0.5;entryDx=0;entryDy=0;exitX=1;exitY=0.5;exitDx=0;exitDy=0;" parent="1" source="505jJCxTDHuLh0HeMeBI-153" target="505jJCxTDHuLh0HeMeBI-157" edge="1">
          <mxGeometry width="50" height="50" relative="1" as="geometry">
            <mxPoint x="480" y="560" as="sourcePoint" />
            <mxPoint x="620" y="690" as="targetPoint" />
          </mxGeometry>
        </mxCell>
        <mxCell id="505jJCxTDHuLh0HeMeBI-162" value="" style="endArrow=classic;startArrow=classic;html=1;rounded=0;exitX=1;exitY=0.5;exitDx=0;exitDy=0;entryX=0;entryY=0.5;entryDx=0;entryDy=0;" parent="1" source="505jJCxTDHuLh0HeMeBI-152" target="505jJCxTDHuLh0HeMeBI-156" edge="1">
          <mxGeometry width="50" height="50" relative="1" as="geometry">
            <mxPoint x="465" y="610" as="sourcePoint" />
            <mxPoint x="585" y="650" as="targetPoint" />
          </mxGeometry>
        </mxCell>
        <mxCell id="505jJCxTDHuLh0HeMeBI-163" value="" style="endArrow=classic;startArrow=classic;html=1;rounded=0;exitX=1;exitY=0.5;exitDx=0;exitDy=0;entryX=0;entryY=0.5;entryDx=0;entryDy=0;" parent="1" source="505jJCxTDHuLh0HeMeBI-151" target="505jJCxTDHuLh0HeMeBI-155" edge="1">
          <mxGeometry width="50" height="50" relative="1" as="geometry">
            <mxPoint x="460" y="580" as="sourcePoint" />
            <mxPoint x="580" y="620" as="targetPoint" />
          </mxGeometry>
        </mxCell>
        <mxCell id="505jJCxTDHuLh0HeMeBI-164" value="" style="rounded=0;whiteSpace=wrap;html=1;" parent="1" vertex="1">
          <mxGeometry x="720" y="560" width="80" height="20" as="geometry" />
        </mxCell>
        <mxCell id="505jJCxTDHuLh0HeMeBI-165" value="" style="rounded=0;whiteSpace=wrap;html=1;" parent="1" vertex="1">
          <mxGeometry x="720" y="580" width="80" height="20" as="geometry" />
        </mxCell>
        <mxCell id="505jJCxTDHuLh0HeMeBI-166" value="" style="rounded=0;whiteSpace=wrap;html=1;" parent="1" vertex="1">
          <mxGeometry x="720" y="600" width="80" height="20" as="geometry" />
        </mxCell>
        <mxCell id="505jJCxTDHuLh0HeMeBI-167" value="" style="rounded=0;whiteSpace=wrap;html=1;" parent="1" vertex="1">
          <mxGeometry x="720" y="620" width="80" height="20" as="geometry" />
        </mxCell>
        <mxCell id="505jJCxTDHuLh0HeMeBI-168" value="weight(&lt;b&gt;4&lt;/b&gt;)" style="rounded=0;whiteSpace=wrap;html=1;" parent="1" vertex="1">
          <mxGeometry x="870" y="560" width="80" height="20" as="geometry" />
        </mxCell>
        <mxCell id="505jJCxTDHuLh0HeMeBI-169" value="weight(&lt;b&gt;5&lt;/b&gt;)" style="rounded=0;whiteSpace=wrap;html=1;" parent="1" vertex="1">
          <mxGeometry x="870" y="580" width="80" height="20" as="geometry" />
        </mxCell>
        <mxCell id="505jJCxTDHuLh0HeMeBI-170" value="weight(&lt;b&gt;6&lt;/b&gt;)" style="rounded=0;whiteSpace=wrap;html=1;" parent="1" vertex="1">
          <mxGeometry x="870" y="600" width="80" height="20" as="geometry" />
        </mxCell>
        <mxCell id="505jJCxTDHuLh0HeMeBI-171" value="weight(&lt;b&gt;7&lt;/b&gt;)" style="rounded=0;whiteSpace=wrap;html=1;" parent="1" vertex="1">
          <mxGeometry x="870" y="620" width="80" height="20" as="geometry" />
        </mxCell>
        <mxCell id="505jJCxTDHuLh0HeMeBI-172" value="" style="endArrow=classic;startArrow=classic;html=1;rounded=0;exitX=1;exitY=0.5;exitDx=0;exitDy=0;entryX=0;entryY=0.5;entryDx=0;entryDy=0;" parent="1" source="505jJCxTDHuLh0HeMeBI-164" target="505jJCxTDHuLh0HeMeBI-168" edge="1">
          <mxGeometry width="50" height="50" relative="1" as="geometry">
            <mxPoint x="840" y="660" as="sourcePoint" />
            <mxPoint x="890" y="610" as="targetPoint" />
          </mxGeometry>
        </mxCell>
        <mxCell id="505jJCxTDHuLh0HeMeBI-173" value="" style="endArrow=classic;startArrow=classic;html=1;rounded=0;exitX=1;exitY=0.5;exitDx=0;exitDy=0;entryX=0;entryY=0.5;entryDx=0;entryDy=0;" parent="1" source="505jJCxTDHuLh0HeMeBI-167" target="505jJCxTDHuLh0HeMeBI-171" edge="1">
          <mxGeometry width="50" height="50" relative="1" as="geometry">
            <mxPoint x="850" y="810" as="sourcePoint" />
            <mxPoint x="970" y="690" as="targetPoint" />
          </mxGeometry>
        </mxCell>
        <mxCell id="505jJCxTDHuLh0HeMeBI-174" value="" style="endArrow=classic;startArrow=classic;html=1;rounded=0;exitX=1;exitY=0.5;exitDx=0;exitDy=0;entryX=0;entryY=0.5;entryDx=0;entryDy=0;" parent="1" source="505jJCxTDHuLh0HeMeBI-166" target="505jJCxTDHuLh0HeMeBI-170" edge="1">
          <mxGeometry width="50" height="50" relative="1" as="geometry">
            <mxPoint x="815" y="610" as="sourcePoint" />
            <mxPoint x="935" y="650" as="targetPoint" />
          </mxGeometry>
        </mxCell>
        <mxCell id="505jJCxTDHuLh0HeMeBI-175" value="" style="endArrow=classic;startArrow=classic;html=1;rounded=0;exitX=1;exitY=0.5;exitDx=0;exitDy=0;entryX=0;entryY=0.5;entryDx=0;entryDy=0;" parent="1" source="505jJCxTDHuLh0HeMeBI-165" target="505jJCxTDHuLh0HeMeBI-169" edge="1">
          <mxGeometry width="50" height="50" relative="1" as="geometry">
            <mxPoint x="810" y="580" as="sourcePoint" />
            <mxPoint x="930" y="620" as="targetPoint" />
          </mxGeometry>
        </mxCell>
        <mxCell id="505jJCxTDHuLh0HeMeBI-176" value="" style="endArrow=classic;html=1;rounded=0;" parent="1" edge="1">
          <mxGeometry width="50" height="50" relative="1" as="geometry">
            <mxPoint x="630" y="570" as="sourcePoint" />
            <mxPoint x="720" y="570" as="targetPoint" />
          </mxGeometry>
        </mxCell>
        <mxCell id="505jJCxTDHuLh0HeMeBI-177" value="&lt;div&gt;write_addr=&lt;b&gt;4&#39;b00&lt;/b&gt;&lt;/div&gt;" style="edgeLabel;html=1;align=center;verticalAlign=middle;resizable=0;points=[];" parent="505jJCxTDHuLh0HeMeBI-176" vertex="1" connectable="0">
          <mxGeometry x="-0.3464" y="1" relative="1" as="geometry">
            <mxPoint x="4" y="-9" as="offset" />
          </mxGeometry>
        </mxCell>
        <mxCell id="505jJCxTDHuLh0HeMeBI-178" value="sample(&lt;b&gt;t=3&lt;/b&gt;)" style="rounded=0;whiteSpace=wrap;html=1;" parent="1" vertex="1">
          <mxGeometry x="360" y="680" width="80" height="20" as="geometry" />
        </mxCell>
        <mxCell id="505jJCxTDHuLh0HeMeBI-179" value="sample(&lt;b&gt;t=2&lt;/b&gt;)" style="rounded=0;whiteSpace=wrap;html=1;" parent="1" vertex="1">
          <mxGeometry x="360" y="700" width="80" height="20" as="geometry" />
        </mxCell>
        <mxCell id="505jJCxTDHuLh0HeMeBI-180" value="sample(&lt;b&gt;t=1&lt;/b&gt;)" style="rounded=0;whiteSpace=wrap;html=1;" parent="1" vertex="1">
          <mxGeometry x="360" y="720" width="80" height="20" as="geometry" />
        </mxCell>
        <mxCell id="505jJCxTDHuLh0HeMeBI-181" value="sample(&lt;b&gt;t=4&lt;/b&gt;)" style="rounded=0;whiteSpace=wrap;html=1;" parent="1" vertex="1">
          <mxGeometry x="360" y="740" width="80" height="20" as="geometry" />
        </mxCell>
        <mxCell id="505jJCxTDHuLh0HeMeBI-182" value="weight(&lt;b&gt;0&lt;/b&gt;)" style="rounded=0;whiteSpace=wrap;html=1;" parent="1" vertex="1">
          <mxGeometry x="520" y="680" width="80" height="20" as="geometry" />
        </mxCell>
        <mxCell id="505jJCxTDHuLh0HeMeBI-183" value="weight(&lt;b&gt;1&lt;/b&gt;)" style="rounded=0;whiteSpace=wrap;html=1;" parent="1" vertex="1">
          <mxGeometry x="520" y="700" width="80" height="20" as="geometry" />
        </mxCell>
        <mxCell id="505jJCxTDHuLh0HeMeBI-184" value="weight(&lt;b&gt;2&lt;/b&gt;)" style="rounded=0;whiteSpace=wrap;html=1;" parent="1" vertex="1">
          <mxGeometry x="520" y="720" width="80" height="20" as="geometry" />
        </mxCell>
        <mxCell id="505jJCxTDHuLh0HeMeBI-185" value="weight(&lt;b&gt;3&lt;/b&gt;)" style="rounded=0;whiteSpace=wrap;html=1;" parent="1" vertex="1">
          <mxGeometry x="520" y="740" width="80" height="20" as="geometry" />
        </mxCell>
        <mxCell id="505jJCxTDHuLh0HeMeBI-186" value="" style="endArrow=classic;startArrow=classic;html=1;rounded=0;exitX=1;exitY=0.5;exitDx=0;exitDy=0;entryX=0;entryY=0.5;entryDx=0;entryDy=0;" parent="1" source="505jJCxTDHuLh0HeMeBI-181" target="505jJCxTDHuLh0HeMeBI-182" edge="1">
          <mxGeometry width="50" height="50" relative="1" as="geometry">
            <mxPoint x="490" y="760" as="sourcePoint" />
            <mxPoint x="540" y="710" as="targetPoint" />
          </mxGeometry>
        </mxCell>
        <mxCell id="505jJCxTDHuLh0HeMeBI-187" value="" style="endArrow=classic;startArrow=classic;html=1;rounded=0;exitX=1;exitY=0.5;exitDx=0;exitDy=0;entryX=0;entryY=0.5;entryDx=0;entryDy=0;" parent="1" source="505jJCxTDHuLh0HeMeBI-180" target="505jJCxTDHuLh0HeMeBI-185" edge="1">
          <mxGeometry width="50" height="50" relative="1" as="geometry">
            <mxPoint x="500" y="910" as="sourcePoint" />
            <mxPoint x="620" y="790" as="targetPoint" />
          </mxGeometry>
        </mxCell>
        <mxCell id="505jJCxTDHuLh0HeMeBI-188" value="" style="endArrow=classic;startArrow=classic;html=1;rounded=0;exitX=1;exitY=0.5;exitDx=0;exitDy=0;entryX=0;entryY=0.5;entryDx=0;entryDy=0;" parent="1" source="505jJCxTDHuLh0HeMeBI-179" target="505jJCxTDHuLh0HeMeBI-184" edge="1">
          <mxGeometry width="50" height="50" relative="1" as="geometry">
            <mxPoint x="465" y="710" as="sourcePoint" />
            <mxPoint x="585" y="750" as="targetPoint" />
          </mxGeometry>
        </mxCell>
        <mxCell id="505jJCxTDHuLh0HeMeBI-189" value="" style="endArrow=classic;startArrow=classic;html=1;rounded=0;exitX=1;exitY=0.5;exitDx=0;exitDy=0;entryX=0;entryY=0.5;entryDx=0;entryDy=0;" parent="1" source="505jJCxTDHuLh0HeMeBI-178" target="505jJCxTDHuLh0HeMeBI-183" edge="1">
          <mxGeometry width="50" height="50" relative="1" as="geometry">
            <mxPoint x="460" y="680" as="sourcePoint" />
            <mxPoint x="580" y="720" as="targetPoint" />
          </mxGeometry>
        </mxCell>
        <mxCell id="505jJCxTDHuLh0HeMeBI-190" value="" style="endArrow=classic;html=1;rounded=0;entryX=0;entryY=0.5;entryDx=0;entryDy=0;" parent="1" edge="1">
          <mxGeometry width="50" height="50" relative="1" as="geometry">
            <mxPoint x="270" y="749.71" as="sourcePoint" />
            <mxPoint x="360" y="749.71" as="targetPoint" />
          </mxGeometry>
        </mxCell>
        <mxCell id="505jJCxTDHuLh0HeMeBI-191" value="&lt;div&gt;write_addr=&lt;b&gt;4&#39;b11&lt;/b&gt;&lt;/div&gt;" style="edgeLabel;html=1;align=center;verticalAlign=middle;resizable=0;points=[];" parent="505jJCxTDHuLh0HeMeBI-190" vertex="1" connectable="0">
          <mxGeometry x="-0.3464" y="1" relative="1" as="geometry">
            <mxPoint x="4" y="-9" as="offset" />
          </mxGeometry>
        </mxCell>
        <mxCell id="505jJCxTDHuLh0HeMeBI-192" value="" style="rounded=0;whiteSpace=wrap;html=1;" parent="1" vertex="1">
          <mxGeometry x="720" y="680" width="80" height="20" as="geometry" />
        </mxCell>
        <mxCell id="505jJCxTDHuLh0HeMeBI-193" value="" style="rounded=0;whiteSpace=wrap;html=1;" parent="1" vertex="1">
          <mxGeometry x="720" y="700" width="80" height="20" as="geometry" />
        </mxCell>
        <mxCell id="505jJCxTDHuLh0HeMeBI-194" value="" style="rounded=0;whiteSpace=wrap;html=1;" parent="1" vertex="1">
          <mxGeometry x="720" y="720" width="80" height="20" as="geometry" />
        </mxCell>
        <mxCell id="505jJCxTDHuLh0HeMeBI-195" value="sample(&lt;b&gt;t=0&lt;/b&gt;)" style="rounded=0;whiteSpace=wrap;html=1;" parent="1" vertex="1">
          <mxGeometry x="720" y="740" width="80" height="20" as="geometry" />
        </mxCell>
        <mxCell id="505jJCxTDHuLh0HeMeBI-196" value="weight(&lt;b&gt;4&lt;/b&gt;)" style="rounded=0;whiteSpace=wrap;html=1;" parent="1" vertex="1">
          <mxGeometry x="870" y="680" width="80" height="20" as="geometry" />
        </mxCell>
        <mxCell id="505jJCxTDHuLh0HeMeBI-197" value="weight(&lt;b&gt;5&lt;/b&gt;)" style="rounded=0;whiteSpace=wrap;html=1;" parent="1" vertex="1">
          <mxGeometry x="870" y="700" width="80" height="20" as="geometry" />
        </mxCell>
        <mxCell id="505jJCxTDHuLh0HeMeBI-198" value="weight(&lt;b&gt;6&lt;/b&gt;)" style="rounded=0;whiteSpace=wrap;html=1;" parent="1" vertex="1">
          <mxGeometry x="870" y="720" width="80" height="20" as="geometry" />
        </mxCell>
        <mxCell id="505jJCxTDHuLh0HeMeBI-199" value="weight(&lt;b&gt;7&lt;/b&gt;)" style="rounded=0;whiteSpace=wrap;html=1;" parent="1" vertex="1">
          <mxGeometry x="870" y="740" width="80" height="20" as="geometry" />
        </mxCell>
        <mxCell id="505jJCxTDHuLh0HeMeBI-200" value="" style="endArrow=classic;startArrow=classic;html=1;rounded=0;exitX=1;exitY=0.5;exitDx=0;exitDy=0;entryX=0;entryY=0.5;entryDx=0;entryDy=0;" parent="1" source="505jJCxTDHuLh0HeMeBI-195" target="505jJCxTDHuLh0HeMeBI-196" edge="1">
          <mxGeometry width="50" height="50" relative="1" as="geometry">
            <mxPoint x="840" y="760" as="sourcePoint" />
            <mxPoint x="890" y="710" as="targetPoint" />
          </mxGeometry>
        </mxCell>
        <mxCell id="505jJCxTDHuLh0HeMeBI-201" value="" style="endArrow=classic;startArrow=classic;html=1;rounded=0;exitX=1;exitY=0.5;exitDx=0;exitDy=0;entryX=0;entryY=0.5;entryDx=0;entryDy=0;" parent="1" source="505jJCxTDHuLh0HeMeBI-194" target="505jJCxTDHuLh0HeMeBI-199" edge="1">
          <mxGeometry width="50" height="50" relative="1" as="geometry">
            <mxPoint x="850" y="910" as="sourcePoint" />
            <mxPoint x="970" y="790" as="targetPoint" />
          </mxGeometry>
        </mxCell>
        <mxCell id="505jJCxTDHuLh0HeMeBI-202" value="" style="endArrow=classic;startArrow=classic;html=1;rounded=0;exitX=1;exitY=0.5;exitDx=0;exitDy=0;entryX=0;entryY=0.5;entryDx=0;entryDy=0;" parent="1" source="505jJCxTDHuLh0HeMeBI-193" target="505jJCxTDHuLh0HeMeBI-198" edge="1">
          <mxGeometry width="50" height="50" relative="1" as="geometry">
            <mxPoint x="815" y="710" as="sourcePoint" />
            <mxPoint x="935" y="750" as="targetPoint" />
          </mxGeometry>
        </mxCell>
        <mxCell id="505jJCxTDHuLh0HeMeBI-203" value="" style="endArrow=classic;startArrow=classic;html=1;rounded=0;exitX=1;exitY=0.5;exitDx=0;exitDy=0;entryX=0;entryY=0.5;entryDx=0;entryDy=0;" parent="1" source="505jJCxTDHuLh0HeMeBI-192" target="505jJCxTDHuLh0HeMeBI-197" edge="1">
          <mxGeometry width="50" height="50" relative="1" as="geometry">
            <mxPoint x="810" y="680" as="sourcePoint" />
            <mxPoint x="930" y="720" as="targetPoint" />
          </mxGeometry>
        </mxCell>
        <mxCell id="505jJCxTDHuLh0HeMeBI-204" value="" style="endArrow=classic;html=1;rounded=0;entryX=0;entryY=0.5;entryDx=0;entryDy=0;" parent="1" edge="1">
          <mxGeometry width="50" height="50" relative="1" as="geometry">
            <mxPoint x="630" y="749.71" as="sourcePoint" />
            <mxPoint x="720" y="749.71" as="targetPoint" />
          </mxGeometry>
        </mxCell>
        <mxCell id="505jJCxTDHuLh0HeMeBI-205" value="&lt;div&gt;write_addr=&lt;b&gt;4&#39;b11&lt;/b&gt;&lt;/div&gt;" style="edgeLabel;html=1;align=center;verticalAlign=middle;resizable=0;points=[];" parent="505jJCxTDHuLh0HeMeBI-204" vertex="1" connectable="0">
          <mxGeometry x="-0.3464" y="1" relative="1" as="geometry">
            <mxPoint x="4" y="-9" as="offset" />
          </mxGeometry>
        </mxCell>
        <mxCell id="505jJCxTDHuLh0HeMeBI-206" value="sample(&lt;b&gt;t=3&lt;/b&gt;)" style="rounded=0;whiteSpace=wrap;html=1;" parent="1" vertex="1">
          <mxGeometry x="360" y="800" width="80" height="20" as="geometry" />
        </mxCell>
        <mxCell id="505jJCxTDHuLh0HeMeBI-207" value="sample(&lt;b&gt;t=2&lt;/b&gt;)" style="rounded=0;whiteSpace=wrap;html=1;" parent="1" vertex="1">
          <mxGeometry x="360" y="820" width="80" height="20" as="geometry" />
        </mxCell>
        <mxCell id="505jJCxTDHuLh0HeMeBI-208" value="sample(&lt;b&gt;t=5&lt;/b&gt;)" style="rounded=0;whiteSpace=wrap;html=1;" parent="1" vertex="1">
          <mxGeometry x="360" y="840" width="80" height="20" as="geometry" />
        </mxCell>
        <mxCell id="505jJCxTDHuLh0HeMeBI-209" value="sample(&lt;b&gt;t=4&lt;/b&gt;)" style="rounded=0;whiteSpace=wrap;html=1;" parent="1" vertex="1">
          <mxGeometry x="360" y="860" width="80" height="20" as="geometry" />
        </mxCell>
        <mxCell id="505jJCxTDHuLh0HeMeBI-210" value="weight(&lt;b&gt;0&lt;/b&gt;)" style="rounded=0;whiteSpace=wrap;html=1;" parent="1" vertex="1">
          <mxGeometry x="520" y="800" width="80" height="20" as="geometry" />
        </mxCell>
        <mxCell id="505jJCxTDHuLh0HeMeBI-211" value="weight(&lt;b&gt;1&lt;/b&gt;)" style="rounded=0;whiteSpace=wrap;html=1;" parent="1" vertex="1">
          <mxGeometry x="520" y="820" width="80" height="20" as="geometry" />
        </mxCell>
        <mxCell id="505jJCxTDHuLh0HeMeBI-212" value="weight(&lt;b&gt;2&lt;/b&gt;)" style="rounded=0;whiteSpace=wrap;html=1;" parent="1" vertex="1">
          <mxGeometry x="520" y="840" width="80" height="20" as="geometry" />
        </mxCell>
        <mxCell id="505jJCxTDHuLh0HeMeBI-213" value="weight(&lt;b&gt;3&lt;/b&gt;)" style="rounded=0;whiteSpace=wrap;html=1;" parent="1" vertex="1">
          <mxGeometry x="520" y="860" width="80" height="20" as="geometry" />
        </mxCell>
        <mxCell id="505jJCxTDHuLh0HeMeBI-214" value="" style="endArrow=classic;html=1;rounded=0;entryX=0;entryY=0.5;entryDx=0;entryDy=0;" parent="1" edge="1">
          <mxGeometry width="50" height="50" relative="1" as="geometry">
            <mxPoint x="270" y="849.8299999999999" as="sourcePoint" />
            <mxPoint x="360" y="849.8299999999999" as="targetPoint" />
          </mxGeometry>
        </mxCell>
        <mxCell id="505jJCxTDHuLh0HeMeBI-215" value="&lt;div&gt;write_addr=&lt;b&gt;4&#39;b10&lt;/b&gt;&lt;/div&gt;" style="edgeLabel;html=1;align=center;verticalAlign=middle;resizable=0;points=[];" parent="505jJCxTDHuLh0HeMeBI-214" vertex="1" connectable="0">
          <mxGeometry x="-0.3464" y="1" relative="1" as="geometry">
            <mxPoint x="4" y="-9" as="offset" />
          </mxGeometry>
        </mxCell>
        <mxCell id="505jJCxTDHuLh0HeMeBI-216" value="" style="endArrow=classic;startArrow=classic;html=1;rounded=0;exitX=1;exitY=0.5;exitDx=0;exitDy=0;entryX=0;entryY=0.5;entryDx=0;entryDy=0;" parent="1" source="505jJCxTDHuLh0HeMeBI-208" target="505jJCxTDHuLh0HeMeBI-210" edge="1">
          <mxGeometry width="50" height="50" relative="1" as="geometry">
            <mxPoint x="490" y="900" as="sourcePoint" />
            <mxPoint x="540" y="850" as="targetPoint" />
          </mxGeometry>
        </mxCell>
        <mxCell id="505jJCxTDHuLh0HeMeBI-217" value="" style="endArrow=classic;startArrow=classic;html=1;rounded=0;exitX=1;exitY=0.5;exitDx=0;exitDy=0;entryX=0;entryY=0.5;entryDx=0;entryDy=0;" parent="1" source="505jJCxTDHuLh0HeMeBI-207" target="505jJCxTDHuLh0HeMeBI-213" edge="1">
          <mxGeometry width="50" height="50" relative="1" as="geometry">
            <mxPoint x="500" y="1050" as="sourcePoint" />
            <mxPoint x="620" y="930" as="targetPoint" />
          </mxGeometry>
        </mxCell>
        <mxCell id="505jJCxTDHuLh0HeMeBI-218" value="" style="endArrow=classic;startArrow=classic;html=1;rounded=0;exitX=1;exitY=0.5;exitDx=0;exitDy=0;entryX=0;entryY=0.5;entryDx=0;entryDy=0;" parent="1" source="505jJCxTDHuLh0HeMeBI-206" target="505jJCxTDHuLh0HeMeBI-212" edge="1">
          <mxGeometry width="50" height="50" relative="1" as="geometry">
            <mxPoint x="465" y="850" as="sourcePoint" />
            <mxPoint x="585" y="890" as="targetPoint" />
          </mxGeometry>
        </mxCell>
        <mxCell id="505jJCxTDHuLh0HeMeBI-219" value="" style="endArrow=classic;startArrow=classic;html=1;rounded=0;exitX=1;exitY=0.5;exitDx=0;exitDy=0;entryX=0;entryY=0.5;entryDx=0;entryDy=0;" parent="1" source="505jJCxTDHuLh0HeMeBI-209" target="505jJCxTDHuLh0HeMeBI-211" edge="1">
          <mxGeometry width="50" height="50" relative="1" as="geometry">
            <mxPoint x="460" y="820" as="sourcePoint" />
            <mxPoint x="580" y="860" as="targetPoint" />
          </mxGeometry>
        </mxCell>
        <mxCell id="505jJCxTDHuLh0HeMeBI-220" value="" style="rounded=0;whiteSpace=wrap;html=1;" parent="1" vertex="1">
          <mxGeometry x="720" y="800" width="80" height="20" as="geometry" />
        </mxCell>
        <mxCell id="505jJCxTDHuLh0HeMeBI-221" value="" style="rounded=0;whiteSpace=wrap;html=1;" parent="1" vertex="1">
          <mxGeometry x="720" y="820" width="80" height="20" as="geometry" />
        </mxCell>
        <mxCell id="505jJCxTDHuLh0HeMeBI-222" value="sample(&lt;b&gt;t=1&lt;/b&gt;)" style="rounded=0;whiteSpace=wrap;html=1;" parent="1" vertex="1">
          <mxGeometry x="720" y="840" width="80" height="20" as="geometry" />
        </mxCell>
        <mxCell id="505jJCxTDHuLh0HeMeBI-223" value="sample(&lt;b&gt;t=0&lt;/b&gt;)" style="rounded=0;whiteSpace=wrap;html=1;" parent="1" vertex="1">
          <mxGeometry x="720" y="860" width="80" height="20" as="geometry" />
        </mxCell>
        <mxCell id="505jJCxTDHuLh0HeMeBI-224" value="weight(&lt;b&gt;4&lt;/b&gt;)" style="rounded=0;whiteSpace=wrap;html=1;" parent="1" vertex="1">
          <mxGeometry x="870" y="800" width="80" height="20" as="geometry" />
        </mxCell>
        <mxCell id="505jJCxTDHuLh0HeMeBI-225" value="weight(&lt;b&gt;5&lt;/b&gt;)" style="rounded=0;whiteSpace=wrap;html=1;" parent="1" vertex="1">
          <mxGeometry x="870" y="820" width="80" height="20" as="geometry" />
        </mxCell>
        <mxCell id="505jJCxTDHuLh0HeMeBI-226" value="weight(&lt;b&gt;6&lt;/b&gt;)" style="rounded=0;whiteSpace=wrap;html=1;" parent="1" vertex="1">
          <mxGeometry x="870" y="840" width="80" height="20" as="geometry" />
        </mxCell>
        <mxCell id="505jJCxTDHuLh0HeMeBI-227" value="weight(&lt;b&gt;7&lt;/b&gt;)" style="rounded=0;whiteSpace=wrap;html=1;" parent="1" vertex="1">
          <mxGeometry x="870" y="860" width="80" height="20" as="geometry" />
        </mxCell>
        <mxCell id="505jJCxTDHuLh0HeMeBI-228" value="" style="endArrow=classic;html=1;rounded=0;entryX=0;entryY=0.5;entryDx=0;entryDy=0;" parent="1" edge="1">
          <mxGeometry width="50" height="50" relative="1" as="geometry">
            <mxPoint x="630" y="849.8299999999999" as="sourcePoint" />
            <mxPoint x="720" y="849.8299999999999" as="targetPoint" />
          </mxGeometry>
        </mxCell>
        <mxCell id="505jJCxTDHuLh0HeMeBI-229" value="&lt;div&gt;write_addr=&lt;b&gt;4&#39;b10&lt;/b&gt;&lt;/div&gt;" style="edgeLabel;html=1;align=center;verticalAlign=middle;resizable=0;points=[];" parent="505jJCxTDHuLh0HeMeBI-228" vertex="1" connectable="0">
          <mxGeometry x="-0.3464" y="1" relative="1" as="geometry">
            <mxPoint x="4" y="-9" as="offset" />
          </mxGeometry>
        </mxCell>
        <mxCell id="505jJCxTDHuLh0HeMeBI-230" value="" style="endArrow=classic;startArrow=classic;html=1;rounded=0;exitX=1;exitY=0.5;exitDx=0;exitDy=0;entryX=0;entryY=0.5;entryDx=0;entryDy=0;" parent="1" source="505jJCxTDHuLh0HeMeBI-222" target="505jJCxTDHuLh0HeMeBI-224" edge="1">
          <mxGeometry width="50" height="50" relative="1" as="geometry">
            <mxPoint x="840" y="900" as="sourcePoint" />
            <mxPoint x="890" y="850" as="targetPoint" />
          </mxGeometry>
        </mxCell>
        <mxCell id="505jJCxTDHuLh0HeMeBI-231" value="" style="endArrow=classic;startArrow=classic;html=1;rounded=0;exitX=1;exitY=0.5;exitDx=0;exitDy=0;entryX=0;entryY=0.5;entryDx=0;entryDy=0;" parent="1" source="505jJCxTDHuLh0HeMeBI-221" target="505jJCxTDHuLh0HeMeBI-227" edge="1">
          <mxGeometry width="50" height="50" relative="1" as="geometry">
            <mxPoint x="850" y="1050" as="sourcePoint" />
            <mxPoint x="970" y="930" as="targetPoint" />
          </mxGeometry>
        </mxCell>
        <mxCell id="505jJCxTDHuLh0HeMeBI-232" value="" style="endArrow=classic;startArrow=classic;html=1;rounded=0;exitX=1;exitY=0.5;exitDx=0;exitDy=0;entryX=0;entryY=0.5;entryDx=0;entryDy=0;" parent="1" source="505jJCxTDHuLh0HeMeBI-220" target="505jJCxTDHuLh0HeMeBI-226" edge="1">
          <mxGeometry width="50" height="50" relative="1" as="geometry">
            <mxPoint x="815" y="850" as="sourcePoint" />
            <mxPoint x="935" y="890" as="targetPoint" />
          </mxGeometry>
        </mxCell>
        <mxCell id="505jJCxTDHuLh0HeMeBI-233" value="" style="endArrow=classic;startArrow=classic;html=1;rounded=0;exitX=1;exitY=0.5;exitDx=0;exitDy=0;entryX=0;entryY=0.5;entryDx=0;entryDy=0;" parent="1" source="505jJCxTDHuLh0HeMeBI-223" target="505jJCxTDHuLh0HeMeBI-225" edge="1">
          <mxGeometry width="50" height="50" relative="1" as="geometry">
            <mxPoint x="810" y="820" as="sourcePoint" />
            <mxPoint x="930" y="860" as="targetPoint" />
          </mxGeometry>
        </mxCell>
        <mxCell id="cSEy0WuAJ81XNWmnMzdL-34" value="" style="edgeStyle=orthogonalEdgeStyle;rounded=0;orthogonalLoop=1;jettySize=auto;html=1;" edge="1" parent="1" source="cSEy0WuAJ81XNWmnMzdL-1" target="cSEy0WuAJ81XNWmnMzdL-7">
          <mxGeometry relative="1" as="geometry" />
        </mxCell>
        <mxCell id="cSEy0WuAJ81XNWmnMzdL-1" value="t=0" style="text;html=1;align=center;verticalAlign=middle;whiteSpace=wrap;rounded=0;fontStyle=1" vertex="1" parent="1">
          <mxGeometry x="180" y="200" width="60" height="20" as="geometry" />
        </mxCell>
        <mxCell id="cSEy0WuAJ81XNWmnMzdL-3" value="RAM 0" style="text;html=1;align=center;verticalAlign=middle;whiteSpace=wrap;rounded=0;" vertex="1" parent="1">
          <mxGeometry x="360" y="180" width="60" height="20" as="geometry" />
        </mxCell>
        <mxCell id="cSEy0WuAJ81XNWmnMzdL-4" value="RAM 1" style="text;html=1;align=center;verticalAlign=middle;whiteSpace=wrap;rounded=0;" vertex="1" parent="1">
          <mxGeometry x="720" y="180" width="60" height="20" as="geometry" />
        </mxCell>
        <mxCell id="cSEy0WuAJ81XNWmnMzdL-5" value="ROM 0" style="text;html=1;align=center;verticalAlign=middle;whiteSpace=wrap;rounded=0;" vertex="1" parent="1">
          <mxGeometry x="520" y="180" width="60" height="20" as="geometry" />
        </mxCell>
        <mxCell id="cSEy0WuAJ81XNWmnMzdL-6" value="ROM 1" style="text;html=1;align=center;verticalAlign=middle;whiteSpace=wrap;rounded=0;" vertex="1" parent="1">
          <mxGeometry x="870" y="180" width="60" height="20" as="geometry" />
        </mxCell>
        <mxCell id="cSEy0WuAJ81XNWmnMzdL-7" value="t=1" style="text;html=1;align=center;verticalAlign=middle;whiteSpace=wrap;rounded=0;fontStyle=1" vertex="1" parent="1">
          <mxGeometry x="180" y="320" width="60" height="20" as="geometry" />
        </mxCell>
        <mxCell id="cSEy0WuAJ81XNWmnMzdL-8" value="RAM 0" style="text;html=1;align=center;verticalAlign=middle;whiteSpace=wrap;rounded=0;" vertex="1" parent="1">
          <mxGeometry x="360" y="300" width="60" height="20" as="geometry" />
        </mxCell>
        <mxCell id="cSEy0WuAJ81XNWmnMzdL-9" value="RAM 1" style="text;html=1;align=center;verticalAlign=middle;whiteSpace=wrap;rounded=0;" vertex="1" parent="1">
          <mxGeometry x="720" y="300" width="60" height="20" as="geometry" />
        </mxCell>
        <mxCell id="cSEy0WuAJ81XNWmnMzdL-10" value="ROM 0" style="text;html=1;align=center;verticalAlign=middle;whiteSpace=wrap;rounded=0;" vertex="1" parent="1">
          <mxGeometry x="520" y="300" width="60" height="20" as="geometry" />
        </mxCell>
        <mxCell id="cSEy0WuAJ81XNWmnMzdL-11" value="ROM 1" style="text;html=1;align=center;verticalAlign=middle;whiteSpace=wrap;rounded=0;" vertex="1" parent="1">
          <mxGeometry x="870" y="300" width="60" height="20" as="geometry" />
        </mxCell>
        <mxCell id="cSEy0WuAJ81XNWmnMzdL-12" value="RAM 0" style="text;html=1;align=center;verticalAlign=middle;whiteSpace=wrap;rounded=0;" vertex="1" parent="1">
          <mxGeometry x="360" y="420" width="60" height="20" as="geometry" />
        </mxCell>
        <mxCell id="cSEy0WuAJ81XNWmnMzdL-13" value="RAM 1" style="text;html=1;align=center;verticalAlign=middle;whiteSpace=wrap;rounded=0;" vertex="1" parent="1">
          <mxGeometry x="720" y="420" width="60" height="20" as="geometry" />
        </mxCell>
        <mxCell id="cSEy0WuAJ81XNWmnMzdL-14" value="ROM 0" style="text;html=1;align=center;verticalAlign=middle;whiteSpace=wrap;rounded=0;" vertex="1" parent="1">
          <mxGeometry x="520" y="420" width="60" height="20" as="geometry" />
        </mxCell>
        <mxCell id="cSEy0WuAJ81XNWmnMzdL-15" value="ROM 1" style="text;html=1;align=center;verticalAlign=middle;whiteSpace=wrap;rounded=0;" vertex="1" parent="1">
          <mxGeometry x="870" y="420" width="60" height="20" as="geometry" />
        </mxCell>
        <mxCell id="cSEy0WuAJ81XNWmnMzdL-16" value="RAM 0" style="text;html=1;align=center;verticalAlign=middle;whiteSpace=wrap;rounded=0;" vertex="1" parent="1">
          <mxGeometry x="370" y="540" width="60" height="20" as="geometry" />
        </mxCell>
        <mxCell id="cSEy0WuAJ81XNWmnMzdL-17" value="RAM 1" style="text;html=1;align=center;verticalAlign=middle;whiteSpace=wrap;rounded=0;" vertex="1" parent="1">
          <mxGeometry x="730" y="540" width="60" height="20" as="geometry" />
        </mxCell>
        <mxCell id="cSEy0WuAJ81XNWmnMzdL-18" value="ROM 0" style="text;html=1;align=center;verticalAlign=middle;whiteSpace=wrap;rounded=0;" vertex="1" parent="1">
          <mxGeometry x="530" y="540" width="60" height="20" as="geometry" />
        </mxCell>
        <mxCell id="cSEy0WuAJ81XNWmnMzdL-19" value="ROM 1" style="text;html=1;align=center;verticalAlign=middle;whiteSpace=wrap;rounded=0;" vertex="1" parent="1">
          <mxGeometry x="880" y="540" width="60" height="20" as="geometry" />
        </mxCell>
        <mxCell id="cSEy0WuAJ81XNWmnMzdL-20" value="RAM 0" style="text;html=1;align=center;verticalAlign=middle;whiteSpace=wrap;rounded=0;" vertex="1" parent="1">
          <mxGeometry x="370" y="660" width="60" height="20" as="geometry" />
        </mxCell>
        <mxCell id="cSEy0WuAJ81XNWmnMzdL-21" value="RAM 1" style="text;html=1;align=center;verticalAlign=middle;whiteSpace=wrap;rounded=0;" vertex="1" parent="1">
          <mxGeometry x="730" y="660" width="60" height="20" as="geometry" />
        </mxCell>
        <mxCell id="cSEy0WuAJ81XNWmnMzdL-22" value="ROM 0" style="text;html=1;align=center;verticalAlign=middle;whiteSpace=wrap;rounded=0;" vertex="1" parent="1">
          <mxGeometry x="530" y="660" width="60" height="20" as="geometry" />
        </mxCell>
        <mxCell id="cSEy0WuAJ81XNWmnMzdL-23" value="ROM 1" style="text;html=1;align=center;verticalAlign=middle;whiteSpace=wrap;rounded=0;" vertex="1" parent="1">
          <mxGeometry x="880" y="660" width="60" height="20" as="geometry" />
        </mxCell>
        <mxCell id="cSEy0WuAJ81XNWmnMzdL-24" value="RAM 0" style="text;html=1;align=center;verticalAlign=middle;whiteSpace=wrap;rounded=0;" vertex="1" parent="1">
          <mxGeometry x="370" y="780" width="60" height="20" as="geometry" />
        </mxCell>
        <mxCell id="cSEy0WuAJ81XNWmnMzdL-25" value="RAM 1" style="text;html=1;align=center;verticalAlign=middle;whiteSpace=wrap;rounded=0;" vertex="1" parent="1">
          <mxGeometry x="730" y="780" width="60" height="20" as="geometry" />
        </mxCell>
        <mxCell id="cSEy0WuAJ81XNWmnMzdL-26" value="ROM 0" style="text;html=1;align=center;verticalAlign=middle;whiteSpace=wrap;rounded=0;" vertex="1" parent="1">
          <mxGeometry x="530" y="780" width="60" height="20" as="geometry" />
        </mxCell>
        <mxCell id="cSEy0WuAJ81XNWmnMzdL-27" value="ROM 1" style="text;html=1;align=center;verticalAlign=middle;whiteSpace=wrap;rounded=0;" vertex="1" parent="1">
          <mxGeometry x="880" y="780" width="60" height="20" as="geometry" />
        </mxCell>
        <mxCell id="cSEy0WuAJ81XNWmnMzdL-28" value="TIME" style="text;html=1;align=center;verticalAlign=middle;whiteSpace=wrap;rounded=0;fontStyle=1" vertex="1" parent="1">
          <mxGeometry x="180" y="175" width="60" height="30" as="geometry" />
        </mxCell>
        <mxCell id="cSEy0WuAJ81XNWmnMzdL-29" value="" style="endArrow=classic;html=1;rounded=0;entryX=0.5;entryY=0;entryDx=0;entryDy=0;exitX=0.5;exitY=1;exitDx=0;exitDy=0;" edge="1" parent="1" source="cSEy0WuAJ81XNWmnMzdL-1" target="cSEy0WuAJ81XNWmnMzdL-7">
          <mxGeometry width="50" height="50" relative="1" as="geometry">
            <mxPoint x="150" y="270" as="sourcePoint" />
            <mxPoint x="200" y="220" as="targetPoint" />
          </mxGeometry>
        </mxCell>
        <mxCell id="cSEy0WuAJ81XNWmnMzdL-30" value="t=2" style="text;html=1;align=center;verticalAlign=middle;whiteSpace=wrap;rounded=0;fontStyle=1" vertex="1" parent="1">
          <mxGeometry x="180" y="440" width="60" height="20" as="geometry" />
        </mxCell>
        <mxCell id="cSEy0WuAJ81XNWmnMzdL-31" value="t=3" style="text;html=1;align=center;verticalAlign=middle;whiteSpace=wrap;rounded=0;fontStyle=1" vertex="1" parent="1">
          <mxGeometry x="180" y="560" width="60" height="20" as="geometry" />
        </mxCell>
        <mxCell id="cSEy0WuAJ81XNWmnMzdL-32" value="t=4" style="text;html=1;align=center;verticalAlign=middle;whiteSpace=wrap;rounded=0;fontStyle=1" vertex="1" parent="1">
          <mxGeometry x="180" y="680" width="60" height="20" as="geometry" />
        </mxCell>
        <mxCell id="cSEy0WuAJ81XNWmnMzdL-33" value="t=5" style="text;html=1;align=center;verticalAlign=middle;whiteSpace=wrap;rounded=0;fontStyle=1" vertex="1" parent="1">
          <mxGeometry x="180" y="800" width="60" height="20" as="geometry" />
        </mxCell>
        <mxCell id="cSEy0WuAJ81XNWmnMzdL-35" value="" style="endArrow=classic;html=1;rounded=0;entryX=0.5;entryY=0;entryDx=0;entryDy=0;exitX=0.5;exitY=1;exitDx=0;exitDy=0;" edge="1" parent="1" target="cSEy0WuAJ81XNWmnMzdL-30">
          <mxGeometry width="50" height="50" relative="1" as="geometry">
            <mxPoint x="209.58" y="340" as="sourcePoint" />
            <mxPoint x="209.58" y="420" as="targetPoint" />
          </mxGeometry>
        </mxCell>
        <mxCell id="cSEy0WuAJ81XNWmnMzdL-36" value="" style="endArrow=classic;html=1;rounded=0;entryX=0.5;entryY=0;entryDx=0;entryDy=0;exitX=0.5;exitY=1;exitDx=0;exitDy=0;" edge="1" parent="1" target="cSEy0WuAJ81XNWmnMzdL-31">
          <mxGeometry width="50" height="50" relative="1" as="geometry">
            <mxPoint x="209.57999999999998" y="460" as="sourcePoint" />
            <mxPoint x="209.57999999999998" y="540" as="targetPoint" />
          </mxGeometry>
        </mxCell>
        <mxCell id="cSEy0WuAJ81XNWmnMzdL-37" value="" style="endArrow=classic;html=1;rounded=0;entryX=0.5;entryY=0;entryDx=0;entryDy=0;exitX=0.5;exitY=1;exitDx=0;exitDy=0;" edge="1" parent="1" target="cSEy0WuAJ81XNWmnMzdL-32">
          <mxGeometry width="50" height="50" relative="1" as="geometry">
            <mxPoint x="209.57999999999998" y="580" as="sourcePoint" />
            <mxPoint x="209.57999999999998" y="660" as="targetPoint" />
          </mxGeometry>
        </mxCell>
        <mxCell id="cSEy0WuAJ81XNWmnMzdL-38" value="" style="endArrow=classic;html=1;rounded=0;entryX=0.5;entryY=0;entryDx=0;entryDy=0;exitX=0.5;exitY=1;exitDx=0;exitDy=0;" edge="1" parent="1" target="cSEy0WuAJ81XNWmnMzdL-33">
          <mxGeometry width="50" height="50" relative="1" as="geometry">
            <mxPoint x="209.57999999999998" y="700" as="sourcePoint" />
            <mxPoint x="209.57999999999998" y="780" as="targetPoint" />
          </mxGeometry>
        </mxCell>
        <mxCell id="cSEy0WuAJ81XNWmnMzdL-39" value="" style="endArrow=classic;html=1;rounded=0;exitX=0.5;exitY=1;exitDx=0;exitDy=0;entryX=0.5;entryY=0;entryDx=0;entryDy=0;" edge="1" parent="1" target="cSEy0WuAJ81XNWmnMzdL-40">
          <mxGeometry width="50" height="50" relative="1" as="geometry">
            <mxPoint x="209.79999999999998" y="820" as="sourcePoint" />
            <mxPoint x="210" y="870" as="targetPoint" />
          </mxGeometry>
        </mxCell>
        <mxCell id="cSEy0WuAJ81XNWmnMzdL-40" value="..." style="text;html=1;align=center;verticalAlign=middle;whiteSpace=wrap;rounded=0;fontStyle=1" vertex="1" parent="1">
          <mxGeometry x="180" y="910" width="60" height="20" as="geometry" />
        </mxCell>
        <mxCell id="cSEy0WuAJ81XNWmnMzdL-42" value="" style="endArrow=none;dashed=1;html=1;dashPattern=1 3;strokeWidth=2;rounded=0;" edge="1" parent="1">
          <mxGeometry width="50" height="50" relative="1" as="geometry">
            <mxPoint x="980" y="290" as="sourcePoint" />
            <mxPoint x="190" y="290" as="targetPoint" />
          </mxGeometry>
        </mxCell>
        <mxCell id="cSEy0WuAJ81XNWmnMzdL-43" value="" style="endArrow=none;dashed=1;html=1;dashPattern=1 3;strokeWidth=2;rounded=0;" edge="1" parent="1">
          <mxGeometry width="50" height="50" relative="1" as="geometry">
            <mxPoint x="980" y="410" as="sourcePoint" />
            <mxPoint x="190" y="410" as="targetPoint" />
          </mxGeometry>
        </mxCell>
        <mxCell id="cSEy0WuAJ81XNWmnMzdL-44" value="" style="endArrow=none;dashed=1;html=1;dashPattern=1 3;strokeWidth=2;rounded=0;" edge="1" parent="1">
          <mxGeometry width="50" height="50" relative="1" as="geometry">
            <mxPoint x="980" y="530" as="sourcePoint" />
            <mxPoint x="190" y="530" as="targetPoint" />
          </mxGeometry>
        </mxCell>
        <mxCell id="cSEy0WuAJ81XNWmnMzdL-46" value="" style="endArrow=none;dashed=1;html=1;dashPattern=1 3;strokeWidth=2;rounded=0;" edge="1" parent="1">
          <mxGeometry width="50" height="50" relative="1" as="geometry">
            <mxPoint x="980" y="650" as="sourcePoint" />
            <mxPoint x="190" y="650" as="targetPoint" />
          </mxGeometry>
        </mxCell>
        <mxCell id="cSEy0WuAJ81XNWmnMzdL-47" value="" style="endArrow=none;dashed=1;html=1;dashPattern=1 3;strokeWidth=2;rounded=0;" edge="1" parent="1">
          <mxGeometry width="50" height="50" relative="1" as="geometry">
            <mxPoint x="980" y="770" as="sourcePoint" />
            <mxPoint x="190" y="770" as="targetPoint" />
          </mxGeometry>
        </mxCell>
        <mxCell id="cSEy0WuAJ81XNWmnMzdL-48" value="" style="endArrow=none;dashed=1;html=1;dashPattern=1 3;strokeWidth=2;rounded=0;" edge="1" parent="1">
          <mxGeometry width="50" height="50" relative="1" as="geometry">
            <mxPoint x="980" y="890" as="sourcePoint" />
            <mxPoint x="190" y="890" as="targetPoint" />
          </mxGeometry>
        </mxCell>
      </root>
    </mxGraphModel>
  </diagram>
</mxfile>
